<?xml version="1.0" encoding="utf-8"?>
<!-- Generator: Adobe Illustrator 24.2.1, SVG Export Plug-In . SVG Version: 6.00 Build 0)  -->
<svg version="1.1" id="Layer_1" xmlns="http://www.w3.org/2000/svg" xmlns:xlink="http://www.w3.org/1999/xlink" x="0px" y="0px"
	 viewBox="0 0 200 88" style="enable-background:new 0 0 200 88;" xml:space="preserve">
<style type="text/css">
	.st0{fill:#50316B;}
	.st1{fill:#64D5C1;}
	.st2{fill:#FF5F41;}
	.st3{fill:#341846;}
	.st4{font-family:'Insaniburger';}
	.st5{font-size:26px;}
	.st6{letter-spacing:1;}
</style>
<path class="st0" d="M28.68,68.46c-2.79,0-5.05-2.27-5.05-5.05c0-2.79,2.27-5.05,5.05-5.05s5.05,2.27,5.05,5.05
	C33.74,66.2,31.47,68.46,28.68,68.46 M28.68,61.32c-1.15,0-2.09,0.94-2.09,2.09c0,1.15,0.94,2.09,2.09,2.09
	c1.15,0,2.09-0.94,2.09-2.09C30.77,62.26,29.84,61.32,28.68,61.32"/>
<path class="st0" d="M43.6,68.46c-2.79,0-5.05-2.27-5.05-5.05c0-2.79,2.27-5.05,5.05-5.05c2.79,0,5.05,2.27,5.05,5.05
	C48.65,66.2,46.39,68.46,43.6,68.46 M43.6,61.32c-1.15,0-2.09,0.94-2.09,2.09c0,1.15,0.94,2.09,2.09,2.09
	c1.15,0,2.09-0.94,2.09-2.09C45.69,62.26,44.75,61.32,43.6,61.32"/>
<path class="st0" d="M20.74,64.62c-0.61,0-1.18-0.38-1.4-0.99L9.03,34.37H4.34c-0.82,0-1.48-0.66-1.48-1.48
	c0-0.82,0.66-1.48,1.48-1.48h5.74c0.63,0,1.19,0.4,1.4,0.99l10.67,30.26c0.27,0.77-0.13,1.62-0.9,1.89
	C21.07,64.6,20.91,64.62,20.74,64.62"/>
<path class="st0" d="M50.58,60.78c-0.38,0-0.76-0.14-1.05-0.43c-0.58-0.58-0.58-1.52,0-2.09l2.5-2.5v-1.58H18.07
	c-0.82,0-1.48-0.66-1.48-1.48s0.66-1.48,1.48-1.48h35.45c0.82,0,1.48,0.66,1.48,1.48v3.67c0,0.39-0.16,0.77-0.43,1.05l-2.94,2.94
	C51.34,60.64,50.96,60.78,50.58,60.78"/>
<path class="st0" d="M53.52,54.18c-0.82,0-1.48-0.66-1.48-1.48V41.64c0-0.82,0.66-1.48,1.48-1.48c0.82,0,1.48,0.66,1.48,1.48V52.7
	C55,53.51,54.34,54.18,53.52,54.18"/>
<path class="st1" d="M36.74,33.46L36.74,33.46V18.28c0-3.96,3.21-7.18,7.18-7.18v15.19C43.92,30.25,40.7,33.46,36.74,33.46"/>
<path class="st1" d="M24.71,23.28h2.34c4.33,0,7.84,3.51,7.84,7.84v2.34h-2.34c-4.33,0-7.84-3.51-7.84-7.84V23.28z"/>
<path class="st2" d="M48,47.81c0-6.82-5.53-12.35-12.35-12.35c-6.82,0-12.35,5.53-12.35,12.35H48z"/>
<g>
	<g>
		<path class="st3" d="M5.31,79.91c-0.06,0-0.1-0.02-0.13-0.05c-0.03-0.03-0.05-0.08-0.05-0.13v-5.17c0-0.06,0.02-0.1,0.05-0.14
			s0.08-0.05,0.13-0.05h2.17c0.4,0,0.72,0.07,0.97,0.19c0.25,0.13,0.44,0.3,0.55,0.53c0.12,0.22,0.18,0.47,0.18,0.75
			c0,0.22-0.04,0.4-0.11,0.56c-0.07,0.16-0.16,0.28-0.27,0.38c-0.11,0.1-0.21,0.17-0.31,0.23c0.21,0.1,0.39,0.26,0.55,0.49
			c0.16,0.23,0.24,0.5,0.24,0.82c0,0.29-0.07,0.56-0.2,0.8c-0.13,0.24-0.33,0.44-0.59,0.58s-0.58,0.22-0.97,0.22H5.31z M5.91,76.71
			h1.46c0.34,0,0.59-0.08,0.77-0.23s0.26-0.37,0.26-0.64s-0.09-0.48-0.26-0.62S7.7,75,7.36,75H5.91V76.71z M5.91,79.27h1.53
			c0.34,0,0.61-0.09,0.79-0.28c0.18-0.18,0.28-0.41,0.28-0.68c0-0.28-0.09-0.51-0.28-0.69c-0.19-0.18-0.45-0.27-0.79-0.27H5.91
			V79.27z"/>
		<path class="st3" d="M13.94,79.99c-0.44,0-0.83-0.08-1.14-0.24c-0.32-0.16-0.57-0.4-0.74-0.72c-0.17-0.33-0.26-0.74-0.26-1.26
			v-3.22c0-0.06,0.02-0.1,0.05-0.14s0.08-0.05,0.13-0.05h0.4c0.06,0,0.1,0.02,0.14,0.05s0.05,0.08,0.05,0.14v3.23
			c0,0.52,0.12,0.9,0.36,1.15c0.24,0.25,0.58,0.37,1,0.37c0.42,0,0.75-0.12,0.99-0.37c0.25-0.25,0.37-0.63,0.37-1.15v-3.23
			c0-0.06,0.02-0.1,0.05-0.14c0.03-0.03,0.08-0.05,0.13-0.05h0.41c0.05,0,0.1,0.02,0.13,0.05s0.05,0.08,0.05,0.14v3.22
			c0,0.51-0.09,0.93-0.26,1.26c-0.17,0.32-0.42,0.57-0.73,0.72S14.39,79.99,13.94,79.99z"/>
		<path class="st3" d="M20.22,79.91c-0.05,0-0.1-0.02-0.13-0.05c-0.03-0.03-0.05-0.08-0.05-0.13v-4.66h-1.52
			c-0.05,0-0.1-0.02-0.13-0.05c-0.03-0.04-0.05-0.08-0.05-0.13v-0.33c0-0.06,0.02-0.1,0.05-0.14s0.08-0.05,0.13-0.05h3.82
			c0.06,0,0.1,0.02,0.14,0.05c0.03,0.03,0.05,0.08,0.05,0.14v0.33c0,0.05-0.02,0.1-0.05,0.13c-0.03,0.03-0.08,0.05-0.14,0.05h-1.51
			v4.66c0,0.05-0.02,0.1-0.05,0.13c-0.03,0.04-0.08,0.05-0.14,0.05H20.22z"/>
		<path class="st3" d="M26.83,79.99c-0.49,0-0.89-0.09-1.21-0.27c-0.32-0.18-0.56-0.43-0.72-0.75s-0.25-0.7-0.27-1.13
			c-0.01-0.22-0.01-0.45-0.01-0.7c0-0.25,0-0.49,0.01-0.71c0.02-0.43,0.11-0.8,0.27-1.12c0.16-0.32,0.41-0.57,0.72-0.75
			c0.32-0.18,0.72-0.27,1.21-0.27c0.36,0,0.68,0.05,0.96,0.15c0.27,0.1,0.5,0.24,0.69,0.4s0.32,0.36,0.42,0.57
			c0.09,0.21,0.15,0.42,0.16,0.65c0.01,0.05-0.01,0.09-0.04,0.12c-0.03,0.03-0.08,0.05-0.12,0.05h-0.44c-0.05,0-0.09-0.01-0.12-0.04
			s-0.06-0.07-0.08-0.14c-0.09-0.41-0.26-0.69-0.5-0.85s-0.55-0.23-0.92-0.23c-0.42,0-0.76,0.12-1.01,0.36
			c-0.25,0.24-0.38,0.62-0.4,1.15c-0.02,0.43-0.02,0.88,0,1.33c0.02,0.53,0.16,0.91,0.4,1.15c0.25,0.24,0.58,0.36,1.01,0.36
			c0.37,0,0.68-0.08,0.92-0.23c0.25-0.15,0.41-0.44,0.5-0.85c0.02-0.07,0.04-0.12,0.08-0.14s0.08-0.04,0.12-0.04h0.44
			c0.05,0,0.09,0.02,0.12,0.05c0.03,0.03,0.05,0.07,0.04,0.12c-0.01,0.22-0.06,0.44-0.16,0.65c-0.1,0.21-0.23,0.4-0.42,0.57
			s-0.41,0.3-0.69,0.4S27.2,79.99,26.83,79.99z"/>
		<path class="st3" d="M31.72,79.91c-0.06,0-0.1-0.02-0.13-0.05c-0.03-0.03-0.05-0.08-0.05-0.13v-5.17c0-0.06,0.02-0.1,0.05-0.14
			s0.08-0.05,0.13-0.05h0.4c0.06,0,0.1,0.02,0.14,0.05c0.03,0.03,0.05,0.08,0.05,0.14v2.19h2.72v-2.19c0-0.06,0.02-0.1,0.05-0.14
			c0.03-0.03,0.08-0.05,0.13-0.05h0.4c0.06,0,0.1,0.02,0.14,0.05c0.03,0.03,0.05,0.08,0.05,0.14v5.17c0,0.05-0.02,0.1-0.05,0.13
			c-0.03,0.04-0.08,0.05-0.14,0.05h-0.4c-0.05,0-0.1-0.02-0.13-0.05c-0.03-0.03-0.05-0.08-0.05-0.13v-2.27h-2.72v2.27
			c0,0.05-0.02,0.1-0.05,0.13c-0.03,0.04-0.08,0.05-0.14,0.05H31.72z"/>
		<path class="st3" d="M38.79,79.91c-0.06,0-0.1-0.02-0.13-0.05c-0.03-0.03-0.05-0.08-0.05-0.13v-5.17c0-0.06,0.02-0.1,0.05-0.14
			s0.08-0.05,0.13-0.05h3.27c0.06,0,0.1,0.02,0.13,0.05s0.05,0.08,0.05,0.14v0.3c0,0.06-0.02,0.1-0.05,0.13
			c-0.03,0.03-0.08,0.05-0.13,0.05h-2.69v1.73h2.52c0.06,0,0.1,0.02,0.13,0.05s0.05,0.08,0.05,0.14v0.29c0,0.05-0.02,0.1-0.05,0.13
			s-0.08,0.05-0.13,0.05h-2.52v1.8h2.76c0.06,0,0.1,0.02,0.13,0.05c0.03,0.03,0.05,0.08,0.05,0.13v0.31c0,0.05-0.02,0.1-0.05,0.13
			c-0.03,0.04-0.08,0.05-0.13,0.05H38.79z"/>
		<path class="st3" d="M45.02,79.91c-0.06,0-0.1-0.02-0.13-0.05c-0.03-0.03-0.05-0.08-0.05-0.13v-5.17c0-0.06,0.02-0.1,0.05-0.14
			s0.08-0.05,0.13-0.05h1.93c0.6,0,1.07,0.14,1.42,0.42c0.35,0.28,0.52,0.69,0.52,1.24c0,0.41-0.1,0.74-0.31,0.99
			c-0.2,0.26-0.48,0.43-0.83,0.53l1.22,2.11C49,79.69,49,79.72,49,79.75c0,0.04-0.02,0.08-0.05,0.11c-0.03,0.03-0.07,0.05-0.12,0.05
			h-0.38c-0.09,0-0.16-0.02-0.2-0.07s-0.08-0.09-0.11-0.14L47,77.68h-1.39v2.04c0,0.05-0.02,0.1-0.05,0.13
			c-0.03,0.04-0.08,0.05-0.14,0.05H45.02z M45.61,77.01h1.31c0.4,0,0.69-0.08,0.89-0.25s0.29-0.41,0.29-0.74
			c0-0.32-0.1-0.57-0.29-0.74c-0.19-0.17-0.49-0.25-0.89-0.25h-1.31V77.01z"/>
		<path class="st3" d="M54.9,81.56c-0.05,0-0.1-0.02-0.13-0.05c-0.03-0.03-0.05-0.08-0.05-0.13v-8.38c0-0.05,0.02-0.1,0.05-0.13
			c0.03-0.03,0.08-0.05,0.13-0.05h0.31c0.05,0,0.1,0.02,0.13,0.05c0.03,0.04,0.05,0.08,0.05,0.13v8.38c0,0.05-0.02,0.1-0.05,0.13
			c-0.03,0.03-0.08,0.05-0.13,0.05H54.9z"/>
		<path class="st3" d="M63.45,79.99c-0.49,0-0.89-0.09-1.21-0.27c-0.32-0.18-0.56-0.43-0.72-0.75s-0.25-0.7-0.27-1.13
			c-0.01-0.22-0.01-0.45-0.01-0.7c0-0.25,0-0.49,0.01-0.71c0.02-0.43,0.11-0.8,0.27-1.12c0.16-0.32,0.41-0.57,0.72-0.75
			c0.32-0.18,0.72-0.27,1.21-0.27c0.36,0,0.68,0.05,0.96,0.15c0.27,0.1,0.5,0.24,0.69,0.4s0.32,0.36,0.42,0.57
			c0.09,0.21,0.15,0.42,0.16,0.65c0.01,0.05-0.01,0.09-0.04,0.12c-0.03,0.03-0.08,0.05-0.12,0.05h-0.44c-0.05,0-0.09-0.01-0.12-0.04
			s-0.06-0.07-0.08-0.14c-0.09-0.41-0.26-0.69-0.5-0.85s-0.55-0.23-0.92-0.23c-0.42,0-0.76,0.12-1.01,0.36
			c-0.25,0.24-0.38,0.62-0.4,1.15c-0.02,0.43-0.02,0.88,0,1.33c0.02,0.53,0.16,0.91,0.4,1.15c0.25,0.24,0.58,0.36,1.01,0.36
			c0.37,0,0.68-0.08,0.92-0.23c0.25-0.15,0.41-0.44,0.5-0.85c0.02-0.07,0.04-0.12,0.08-0.14s0.08-0.04,0.12-0.04h0.44
			c0.05,0,0.09,0.02,0.12,0.05c0.03,0.03,0.05,0.07,0.04,0.12c-0.01,0.22-0.06,0.44-0.16,0.65c-0.1,0.21-0.23,0.4-0.42,0.57
			s-0.41,0.3-0.69,0.4S63.81,79.99,63.45,79.99z"/>
		<path class="st3" d="M67.78,79.91c-0.04,0-0.08-0.02-0.11-0.05c-0.03-0.03-0.05-0.07-0.05-0.11c0-0.03,0-0.06,0.01-0.09l1.96-5.13
			c0.02-0.05,0.05-0.1,0.09-0.13s0.09-0.05,0.17-0.05h0.54c0.07,0,0.12,0.02,0.16,0.05s0.07,0.07,0.09,0.13l1.96,5.13
			c0.01,0.03,0.02,0.06,0.02,0.09c0,0.04-0.02,0.08-0.05,0.11c-0.03,0.03-0.07,0.05-0.11,0.05h-0.4c-0.06,0-0.11-0.02-0.14-0.05
			c-0.03-0.03-0.05-0.06-0.06-0.09l-0.44-1.13h-2.6l-0.44,1.13c-0.01,0.03-0.02,0.06-0.06,0.09c-0.03,0.03-0.08,0.05-0.14,0.05
			H67.78z M69.05,77.97h2.14l-1.07-2.81L69.05,77.97z"/>
		<path class="st3" d="M76.28,79.91c-0.05,0-0.1-0.02-0.13-0.05c-0.03-0.03-0.05-0.08-0.05-0.13v-4.66h-1.52
			c-0.05,0-0.1-0.02-0.13-0.05c-0.03-0.04-0.05-0.08-0.05-0.13v-0.33c0-0.06,0.02-0.1,0.05-0.14s0.08-0.05,0.13-0.05h3.82
			c0.06,0,0.1,0.02,0.14,0.05c0.03,0.03,0.05,0.08,0.05,0.14v0.33c0,0.05-0.02,0.1-0.05,0.13c-0.03,0.03-0.08,0.05-0.14,0.05h-1.51
			v4.66c0,0.05-0.02,0.1-0.05,0.13c-0.03,0.04-0.08,0.05-0.14,0.05H76.28z"/>
		<path class="st3" d="M81.08,79.91c-0.06,0-0.1-0.02-0.13-0.05c-0.03-0.03-0.05-0.08-0.05-0.13v-5.17c0-0.06,0.02-0.1,0.05-0.14
			s0.08-0.05,0.13-0.05h3.27c0.06,0,0.1,0.02,0.13,0.05s0.05,0.08,0.05,0.14v0.3c0,0.06-0.02,0.1-0.05,0.13
			c-0.03,0.03-0.08,0.05-0.13,0.05h-2.69v1.73h2.52c0.06,0,0.1,0.02,0.13,0.05s0.05,0.08,0.05,0.14v0.29c0,0.05-0.02,0.1-0.05,0.13
			s-0.08,0.05-0.13,0.05h-2.52v1.8h2.76c0.06,0,0.1,0.02,0.13,0.05c0.03,0.03,0.05,0.08,0.05,0.13v0.31c0,0.05-0.02,0.1-0.05,0.13
			c-0.03,0.04-0.08,0.05-0.13,0.05H81.08z"/>
		<path class="st3" d="M87.31,79.91c-0.06,0-0.1-0.02-0.13-0.05c-0.03-0.03-0.05-0.08-0.05-0.13v-5.17c0-0.06,0.02-0.1,0.05-0.14
			s0.08-0.05,0.13-0.05h1.93c0.6,0,1.07,0.14,1.42,0.42c0.35,0.28,0.52,0.69,0.52,1.24c0,0.41-0.1,0.74-0.31,0.99
			c-0.2,0.26-0.48,0.43-0.83,0.53l1.22,2.11c0.02,0.03,0.02,0.06,0.02,0.09c0,0.04-0.02,0.08-0.05,0.11
			c-0.03,0.03-0.07,0.05-0.12,0.05h-0.38c-0.09,0-0.16-0.02-0.2-0.07s-0.08-0.09-0.11-0.14l-1.15-2.01H87.9v2.04
			c0,0.05-0.02,0.1-0.05,0.13c-0.03,0.04-0.08,0.05-0.14,0.05H87.31z M87.9,77.01h1.31c0.4,0,0.69-0.08,0.89-0.25
			s0.29-0.41,0.29-0.74c0-0.32-0.1-0.57-0.29-0.74c-0.19-0.17-0.49-0.25-0.89-0.25H87.9V77.01z"/>
		<path class="st3" d="M93.92,79.91c-0.06,0-0.1-0.02-0.13-0.05c-0.03-0.03-0.05-0.08-0.05-0.13v-5.18c0-0.05,0.02-0.1,0.05-0.13
			s0.08-0.05,0.13-0.05h0.42c0.05,0,0.1,0.02,0.13,0.05c0.03,0.03,0.05,0.08,0.05,0.13v5.18c0,0.05-0.02,0.1-0.05,0.13
			c-0.03,0.04-0.08,0.05-0.13,0.05H93.92z"/>
		<path class="st3" d="M97.51,79.91c-0.06,0-0.1-0.02-0.13-0.05c-0.03-0.03-0.05-0.08-0.05-0.13v-5.17c0-0.06,0.02-0.1,0.05-0.14
			s0.08-0.05,0.13-0.05h0.36c0.06,0,0.11,0.01,0.14,0.04c0.03,0.03,0.05,0.05,0.06,0.07l2.63,4.04v-3.96c0-0.06,0.02-0.1,0.05-0.14
			s0.08-0.05,0.13-0.05h0.38c0.06,0,0.1,0.02,0.14,0.05c0.04,0.03,0.05,0.08,0.05,0.14v5.16c0,0.05-0.02,0.1-0.05,0.13
			c-0.03,0.04-0.08,0.06-0.13,0.06h-0.38c-0.06,0-0.1-0.02-0.13-0.05c-0.03-0.03-0.05-0.05-0.06-0.06l-2.62-4v3.93
			c0,0.05-0.02,0.1-0.05,0.13c-0.03,0.04-0.08,0.05-0.14,0.05H97.51z"/>
		<path class="st3" d="M106.26,79.99c-0.46,0-0.86-0.09-1.18-0.26c-0.33-0.17-0.57-0.42-0.74-0.74c-0.17-0.32-0.27-0.69-0.29-1.12
			c-0.01-0.23-0.01-0.48-0.01-0.74s0-0.51,0.01-0.75c0.02-0.43,0.12-0.8,0.29-1.11c0.17-0.31,0.42-0.55,0.75-0.73
			c0.33-0.17,0.72-0.26,1.18-0.26c0.38,0,0.7,0.05,0.97,0.16c0.27,0.11,0.5,0.24,0.68,0.4c0.18,0.16,0.31,0.33,0.4,0.5
			c0.09,0.17,0.13,0.33,0.14,0.46c0,0.05-0.01,0.09-0.04,0.11c-0.03,0.03-0.07,0.04-0.13,0.04h-0.47c-0.05,0-0.09-0.01-0.12-0.03
			c-0.02-0.02-0.05-0.06-0.07-0.11c-0.05-0.14-0.13-0.27-0.23-0.4c-0.11-0.13-0.25-0.24-0.44-0.33c-0.18-0.09-0.42-0.13-0.7-0.13
			c-0.42,0-0.75,0.11-1.01,0.34c-0.26,0.23-0.39,0.6-0.42,1.13c-0.02,0.47-0.02,0.94,0,1.41c0.02,0.53,0.16,0.91,0.42,1.14
			s0.6,0.34,1.01,0.34c0.28,0,0.53-0.05,0.75-0.15c0.22-0.1,0.39-0.26,0.52-0.48s0.19-0.49,0.19-0.82v-0.33h-1.19
			c-0.05,0-0.1-0.02-0.13-0.05c-0.03-0.03-0.05-0.08-0.05-0.14v-0.25c0-0.06,0.02-0.1,0.05-0.14c0.04-0.03,0.08-0.05,0.13-0.05h1.79
			c0.06,0,0.1,0.02,0.13,0.05c0.03,0.04,0.05,0.08,0.05,0.14v0.76c0,0.43-0.09,0.81-0.27,1.13s-0.43,0.57-0.77,0.75
			C107.14,79.9,106.73,79.99,106.26,79.99z"/>
		<path class="st3" d="M114.52,81.56c-0.05,0-0.1-0.02-0.13-0.05c-0.04-0.03-0.05-0.08-0.05-0.13v-8.38c0-0.05,0.02-0.1,0.05-0.13
			c0.03-0.03,0.08-0.05,0.13-0.05h0.31c0.05,0,0.1,0.02,0.13,0.05c0.03,0.04,0.05,0.08,0.05,0.13v8.38c0,0.05-0.02,0.1-0.05,0.13
			c-0.04,0.03-0.08,0.05-0.13,0.05H114.52z"/>
		<path class="st3" d="M121.26,79.91c-0.06,0-0.1-0.02-0.13-0.05c-0.03-0.03-0.05-0.08-0.05-0.13v-5.17c0-0.06,0.02-0.1,0.05-0.14
			c0.03-0.03,0.08-0.05,0.13-0.05h1.8c0.54,0,0.98,0.08,1.31,0.25c0.33,0.16,0.58,0.41,0.73,0.72c0.15,0.32,0.23,0.71,0.24,1.18
			c0,0.24,0.01,0.45,0.01,0.63s0,0.39-0.01,0.62c-0.01,0.49-0.09,0.89-0.24,1.21s-0.39,0.56-0.71,0.71
			c-0.32,0.16-0.75,0.23-1.29,0.23H121.26z M121.85,79.24h1.21c0.36,0,0.65-0.05,0.87-0.15c0.22-0.1,0.37-0.26,0.47-0.48
			s0.15-0.52,0.15-0.88c0.01-0.16,0.02-0.3,0.02-0.42c0-0.12,0-0.24,0-0.36c0-0.12,0-0.25-0.02-0.41c-0.01-0.51-0.13-0.89-0.36-1.14
			s-0.62-0.37-1.17-0.37h-1.17V79.24z"/>
		<path class="st3" d="M128.14,79.91c-0.06,0-0.1-0.02-0.13-0.05c-0.03-0.03-0.05-0.08-0.05-0.13v-5.17c0-0.06,0.02-0.1,0.05-0.14
			c0.03-0.03,0.08-0.05,0.13-0.05h3.27c0.06,0,0.1,0.02,0.13,0.05s0.05,0.08,0.05,0.14v0.3c0,0.06-0.02,0.1-0.05,0.13
			c-0.03,0.03-0.08,0.05-0.13,0.05h-2.69v1.73h2.52c0.06,0,0.1,0.02,0.13,0.05c0.03,0.03,0.05,0.08,0.05,0.14v0.29
			c0,0.05-0.02,0.1-0.05,0.13c-0.03,0.03-0.08,0.05-0.13,0.05h-2.52v1.8h2.76c0.06,0,0.1,0.02,0.13,0.05
			c0.03,0.03,0.05,0.08,0.05,0.13v0.31c0,0.05-0.02,0.1-0.05,0.13c-0.03,0.04-0.08,0.05-0.13,0.05H128.14z"/>
		<path class="st3" d="M134.36,79.91c-0.06,0-0.1-0.02-0.13-0.05c-0.03-0.03-0.05-0.08-0.05-0.13v-5.18c0-0.05,0.02-0.1,0.05-0.13
			c0.03-0.03,0.08-0.05,0.13-0.05h0.42c0.05,0,0.09,0.02,0.13,0.05s0.05,0.08,0.05,0.13v4.67h2.64c0.06,0,0.1,0.02,0.13,0.05
			c0.03,0.03,0.05,0.08,0.05,0.14v0.32c0,0.05-0.02,0.1-0.05,0.13c-0.03,0.04-0.08,0.05-0.13,0.05H134.36z"/>
		<path class="st3" d="M140.25,79.91c-0.06,0-0.1-0.02-0.13-0.05c-0.03-0.03-0.05-0.08-0.05-0.13v-5.18c0-0.05,0.02-0.1,0.05-0.13
			s0.08-0.05,0.13-0.05h0.42c0.05,0,0.1,0.02,0.13,0.05c0.03,0.03,0.05,0.08,0.05,0.13v5.18c0,0.05-0.02,0.1-0.05,0.13
			c-0.04,0.04-0.08,0.05-0.13,0.05H140.25z"/>
		<path class="st3" d="M147.1,81.56c-0.05,0-0.1-0.02-0.13-0.05c-0.04-0.03-0.05-0.08-0.05-0.13v-8.38c0-0.05,0.02-0.1,0.05-0.13
			c0.03-0.03,0.08-0.05,0.13-0.05h0.31c0.05,0,0.1,0.02,0.13,0.05c0.03,0.04,0.05,0.08,0.05,0.13v8.38c0,0.05-0.02,0.1-0.05,0.13
			c-0.04,0.03-0.08,0.05-0.13,0.05H147.1z"/>
		<path class="st3" d="M155.67,79.99c-0.46,0-0.86-0.09-1.19-0.26c-0.32-0.17-0.57-0.42-0.74-0.74c-0.17-0.32-0.27-0.69-0.29-1.12
			c0-0.23-0.01-0.48-0.01-0.74s0-0.51,0.01-0.75c0.02-0.43,0.12-0.8,0.29-1.11s0.42-0.55,0.75-0.73c0.33-0.17,0.72-0.26,1.18-0.26
			c0.37,0,0.7,0.05,0.97,0.16c0.27,0.11,0.5,0.24,0.68,0.4c0.18,0.16,0.31,0.33,0.4,0.5c0.09,0.17,0.13,0.33,0.14,0.46
			c0,0.05-0.01,0.09-0.04,0.11c-0.03,0.03-0.07,0.04-0.13,0.04h-0.47c-0.05,0-0.09-0.01-0.11-0.03c-0.02-0.02-0.05-0.06-0.07-0.11
			c-0.05-0.14-0.13-0.27-0.23-0.4s-0.25-0.24-0.44-0.33c-0.18-0.09-0.42-0.13-0.7-0.13c-0.42,0-0.75,0.11-1.01,0.34
			c-0.26,0.23-0.39,0.6-0.42,1.13c-0.02,0.47-0.02,0.94,0,1.41c0.02,0.53,0.16,0.91,0.42,1.14s0.6,0.34,1.01,0.34
			c0.28,0,0.53-0.05,0.75-0.15c0.22-0.1,0.39-0.26,0.52-0.48c0.13-0.22,0.19-0.49,0.19-0.82v-0.33h-1.19c-0.05,0-0.1-0.02-0.13-0.05
			c-0.04-0.03-0.05-0.08-0.05-0.14v-0.25c0-0.06,0.02-0.1,0.05-0.14c0.03-0.03,0.08-0.05,0.13-0.05h1.79c0.06,0,0.1,0.02,0.13,0.05
			c0.03,0.04,0.05,0.08,0.05,0.14v0.76c0,0.43-0.09,0.81-0.27,1.13s-0.43,0.57-0.77,0.75C156.54,79.9,156.14,79.99,155.67,79.99z"/>
		<path class="st3" d="M160.66,79.91c-0.06,0-0.1-0.02-0.13-0.05c-0.03-0.03-0.05-0.08-0.05-0.13v-5.17c0-0.06,0.02-0.1,0.05-0.14
			c0.03-0.03,0.08-0.05,0.13-0.05h1.93c0.6,0,1.07,0.14,1.42,0.42c0.35,0.28,0.52,0.69,0.52,1.24c0,0.41-0.1,0.74-0.31,0.99
			c-0.2,0.26-0.48,0.43-0.83,0.53l1.22,2.11c0.02,0.03,0.02,0.06,0.02,0.09c0,0.04-0.02,0.08-0.05,0.11
			c-0.03,0.03-0.07,0.05-0.12,0.05h-0.38c-0.09,0-0.16-0.02-0.2-0.07c-0.04-0.05-0.08-0.09-0.11-0.14l-1.15-2.01h-1.39v2.04
			c0,0.05-0.02,0.1-0.05,0.13c-0.03,0.04-0.08,0.05-0.14,0.05H160.66z M161.26,77.01h1.31c0.4,0,0.69-0.08,0.89-0.25
			s0.29-0.41,0.29-0.74c0-0.32-0.1-0.57-0.29-0.74c-0.19-0.17-0.49-0.25-0.89-0.25h-1.31V77.01z"/>
		<path class="st3" d="M169.08,79.99c-0.45,0-0.83-0.08-1.16-0.23c-0.32-0.16-0.57-0.4-0.75-0.72c-0.17-0.33-0.27-0.73-0.29-1.22
			c0-0.23-0.01-0.46-0.01-0.67s0-0.44,0.01-0.67c0.02-0.49,0.12-0.89,0.3-1.22c0.18-0.33,0.44-0.57,0.76-0.73s0.7-0.24,1.13-0.24
			c0.43,0,0.81,0.08,1.14,0.24s0.58,0.4,0.76,0.73c0.18,0.32,0.29,0.73,0.3,1.22c0.01,0.23,0.02,0.46,0.02,0.67
			s-0.01,0.44-0.02,0.67c-0.02,0.49-0.11,0.9-0.29,1.22c-0.18,0.32-0.43,0.56-0.75,0.72C169.92,79.91,169.54,79.99,169.08,79.99z
			 M169.08,79.31c0.41,0,0.74-0.12,0.99-0.36c0.26-0.24,0.39-0.64,0.42-1.18c0.01-0.24,0.02-0.45,0.02-0.64s0-0.4-0.02-0.63
			c-0.01-0.36-0.08-0.66-0.2-0.89c-0.12-0.23-0.29-0.39-0.5-0.5s-0.44-0.16-0.71-0.16c-0.26,0-0.49,0.05-0.7,0.16
			s-0.37,0.27-0.5,0.5c-0.12,0.23-0.19,0.52-0.21,0.89c-0.01,0.23-0.01,0.44-0.01,0.63s0,0.4,0.01,0.64
			c0.02,0.54,0.16,0.94,0.42,1.18C168.36,79.19,168.69,79.31,169.08,79.31z"/>
		<path class="st3" d="M175.88,79.99c-0.49,0-0.89-0.09-1.21-0.27c-0.32-0.18-0.56-0.43-0.72-0.75s-0.25-0.7-0.27-1.13
			c-0.01-0.22-0.01-0.45-0.01-0.7c0-0.25,0-0.49,0.01-0.71c0.02-0.43,0.11-0.8,0.27-1.12c0.16-0.32,0.41-0.57,0.72-0.75
			s0.72-0.27,1.21-0.27c0.36,0,0.68,0.05,0.96,0.15c0.27,0.1,0.5,0.24,0.68,0.4s0.32,0.36,0.42,0.57s0.15,0.42,0.16,0.65
			c0,0.05-0.01,0.09-0.04,0.12c-0.03,0.03-0.07,0.05-0.12,0.05h-0.44c-0.05,0-0.09-0.01-0.12-0.04s-0.06-0.07-0.08-0.14
			c-0.09-0.41-0.26-0.69-0.5-0.85s-0.55-0.23-0.92-0.23c-0.42,0-0.76,0.12-1.01,0.36s-0.38,0.62-0.4,1.15
			c-0.02,0.43-0.02,0.88,0,1.33c0.02,0.53,0.16,0.91,0.4,1.15s0.58,0.36,1.01,0.36c0.37,0,0.68-0.08,0.92-0.23
			c0.25-0.15,0.41-0.44,0.5-0.85c0.02-0.07,0.04-0.12,0.08-0.14s0.08-0.04,0.12-0.04h0.44c0.05,0,0.09,0.02,0.12,0.05
			c0.04,0.03,0.05,0.07,0.04,0.12c-0.01,0.22-0.06,0.44-0.16,0.65c-0.09,0.21-0.23,0.4-0.42,0.57s-0.41,0.3-0.68,0.4
			C176.56,79.94,176.24,79.99,175.88,79.99z"/>
		<path class="st3" d="M180.76,79.91c-0.06,0-0.1-0.02-0.13-0.05c-0.03-0.03-0.05-0.08-0.05-0.13v-5.17c0-0.06,0.02-0.1,0.05-0.14
			c0.03-0.03,0.08-0.05,0.13-0.05h3.27c0.06,0,0.1,0.02,0.13,0.05s0.05,0.08,0.05,0.14v0.3c0,0.06-0.02,0.1-0.05,0.13
			c-0.03,0.03-0.08,0.05-0.13,0.05h-2.69v1.73h2.52c0.06,0,0.1,0.02,0.13,0.05c0.03,0.03,0.05,0.08,0.05,0.14v0.29
			c0,0.05-0.02,0.1-0.05,0.13c-0.03,0.03-0.08,0.05-0.13,0.05h-2.52v1.8h2.76c0.06,0,0.1,0.02,0.13,0.05
			c0.03,0.03,0.05,0.08,0.05,0.13v0.31c0,0.05-0.02,0.1-0.05,0.13c-0.03,0.04-0.08,0.05-0.13,0.05H180.76z"/>
		<path class="st3" d="M186.99,79.91c-0.06,0-0.1-0.02-0.13-0.05c-0.03-0.03-0.05-0.08-0.05-0.13v-5.17c0-0.06,0.02-0.1,0.05-0.14
			c0.03-0.03,0.08-0.05,0.13-0.05h1.93c0.6,0,1.07,0.14,1.42,0.42c0.35,0.28,0.52,0.69,0.52,1.24c0,0.41-0.1,0.74-0.31,0.99
			c-0.2,0.26-0.48,0.43-0.83,0.53l1.22,2.11c0.02,0.03,0.02,0.06,0.02,0.09c0,0.04-0.02,0.08-0.05,0.11
			c-0.03,0.03-0.07,0.05-0.12,0.05h-0.38c-0.09,0-0.16-0.02-0.2-0.07c-0.04-0.05-0.08-0.09-0.11-0.14l-1.15-2.01h-1.39v2.04
			c0,0.05-0.02,0.1-0.05,0.13c-0.03,0.04-0.08,0.05-0.14,0.05H186.99z M187.58,77.01h1.31c0.4,0,0.69-0.08,0.89-0.25
			s0.29-0.41,0.29-0.74c0-0.32-0.1-0.57-0.29-0.74c-0.19-0.17-0.49-0.25-0.89-0.25h-1.31V77.01z"/>
		<path class="st3" d="M195.08,79.91c-0.05,0-0.1-0.02-0.13-0.05c-0.03-0.03-0.05-0.08-0.05-0.13v-1.87l-1.91-3.23
			c0-0.02-0.01-0.03-0.02-0.05c0-0.02-0.01-0.03-0.01-0.05c0-0.04,0.02-0.08,0.05-0.11c0.03-0.03,0.07-0.05,0.11-0.05h0.41
			c0.05,0,0.09,0.01,0.13,0.04s0.06,0.06,0.08,0.1l1.54,2.57l1.54-2.57c0.03-0.04,0.06-0.08,0.09-0.1c0.04-0.02,0.08-0.04,0.12-0.04
			h0.4c0.05,0,0.09,0.02,0.12,0.05c0.03,0.03,0.05,0.07,0.05,0.11c0,0.02,0,0.04-0.01,0.05c-0.01,0.02-0.01,0.03-0.02,0.05
			l-1.9,3.23v1.87c0,0.05-0.02,0.1-0.05,0.13c-0.03,0.04-0.08,0.05-0.14,0.05H195.08z"/>
	</g>
</g>
<text transform="matrix(1 0 0 1 58.6431 33.5996)"><tspan x="0" y="0" class="st1 st4 st5 st6">KINGSTON</tspan><tspan x="16.66" y="28" class="st1 st4 st5 st6">KOSHER</tspan></text>
</svg>
